<svg width="82" height="82" viewBox="0 0 82 82" fill="none" xmlns="http://www.w3.org/2000/svg">
<path d="M7.6875 43.5967C7.6875 49.0633 11.5244 53.8262 16.9364 54.6223C20.5854 55.1587 24.2754 55.5755 27.9996 55.8659C29.5917 55.9923 31.0507 56.826 31.939 58.1585L41 71.75L50.061 58.1585C50.9493 56.826 52.4083 55.9923 54.0004 55.8693C57.7246 55.5755 61.4146 55.1587 65.0636 54.6223C70.4756 53.8262 74.3125 49.0668 74.3125 43.5933V23.0318C74.3125 17.5583 70.4756 12.7988 65.0636 12.0028C57.0958 10.8333 49.0532 10.2475 41 10.25C32.8273 10.25 24.7913 10.8479 16.9364 12.0028C11.5244 12.7988 7.6875 17.5617 7.6875 23.0318V43.5933V43.5967Z" fill="#FCFFFC" stroke="#224870" stroke-width="3" strokeLinecap="round" stroke-linejoin="round"/>
<path d="M43.8878 22.3566L46.2777 19.9652C46.776 19.467 47.4517 19.1871 48.1562 19.1871C48.8608 19.1871 49.5365 19.467 50.0347 19.9652C50.533 20.4634 50.8129 21.1392 50.8129 21.8437C50.8129 22.5483 50.533 23.224 50.0347 23.7222L29.6787 44.0783C28.9297 44.8268 28.0061 45.377 26.9912 45.6792L23.1875 46.8125L24.3208 43.0087C24.623 41.9939 25.1731 41.0703 25.9217 40.3213L43.8893 22.3566H43.8878ZM43.8878 22.3566L47.625 26.0937Z" fill="#ECEDEC"/>
<path d="M43.8878 22.3566L47.625 26.0937M43.8878 22.3566L46.2777 19.9652C46.776 19.467 47.4517 19.1871 48.1562 19.1871C48.8608 19.1871 49.5365 19.467 50.0347 19.9652C50.533 20.4634 50.8129 21.1392 50.8129 21.8437C50.8129 22.5483 50.533 23.224 50.0347 23.7222L29.6787 44.0783C28.9297 44.8268 28.0061 45.377 26.9912 45.6792L23.1875 46.8125L24.3208 43.0087C24.623 41.9939 25.1731 41.0703 25.9217 40.3213L43.8893 22.3566H43.8878Z" stroke="#4EA5D9" stroke-width="2" strokeLinecap="round" stroke-linejoin="round"/>
</svg>
